<svg width="32" height="32" viewBox="0 0 32 32" fill="none" xmlns="http://www.w3.org/2000/svg">
<path d="M12.7676 11.2324L17.5353 16.0001L12.7676 20.7677L13.899 21.8991L18.6667 17.1315L23.4343 21.8991L24.5657 20.7677L19.798 16.0001L24.5657 11.2324L23.4343 10.1011L18.6667 14.8687L13.899 10.1011L12.7676 11.2324Z" fill="black" fill-opacity="0.87"/>
<path fill-rule="evenodd" clip-rule="evenodd" d="M0 16L7.21333 26.8133C7.69333 27.52 8.41333 28 9.33333 28H29.3333C30.8 28 32 26.8 32 25.3333V6.66667C32 5.2 30.8 4 29.3333 4H9.33333C8.41333 4 7.69333 4.46667 7.21333 5.17333L0 16ZM9.33333 5.6H29.3333C29.9163 5.6 30.4 6.08366 30.4 6.66667V25.3333C30.4 25.9163 29.9163 26.4 29.3333 26.4H9.33333C9.04561 26.4 8.78296 26.2743 8.54009 25.919L1.92296 15.9995L8.54028 6.06736C8.77293 5.72728 9.03019 5.6 9.33333 5.6Z" fill="black" fill-opacity="0.87"/>
</svg>
