<svg width="25" height="28" viewBox="0 0 25 28" fill="none" xmlns="http://www.w3.org/2000/svg">
<path d="M20.7467 3.95999C20.64 3.95999 20.5333 3.93332 20.44 3.87999C17.88 2.55999 15.6667 1.99999 13.0133 1.99999C10.3733 1.99999 7.86667 2.62666 5.58667 3.87999C5.26667 4.05332 4.86667 3.93332 4.68 3.61332C4.50667 3.29332 4.62667 2.87999 4.94667 2.70666C7.42667 1.35999 10.1467 0.666656 13.0133 0.666656C15.8533 0.666656 18.3333 1.29332 21.0533 2.69332C21.3867 2.86666 21.5067 3.26666 21.3333 3.58666C21.2133 3.82666 20.9867 3.95999 20.7467 3.95999ZM1.66667 10.96C1.53333 10.96 1.4 10.92 1.28 10.84C0.973334 10.6267 0.906667 10.2133 1.12 9.90666C2.44 8.03999 4.12 6.57332 6.12 5.54666C10.3067 3.38666 15.6667 3.37332 19.8667 5.53332C21.8667 6.55999 23.5467 8.01332 24.8667 9.86666C25.08 10.16 25.0133 10.5867 24.7067 10.8C24.4 11.0133 23.9867 10.9467 23.7733 10.64C22.5733 8.95999 21.0533 7.63999 19.2533 6.71999C15.4267 4.75999 10.5333 4.75999 6.72 6.73332C4.90667 7.66666 3.38667 8.99999 2.18667 10.68C2.08 10.8667 1.88 10.96 1.66667 10.96ZM10 27.0533C9.82667 27.0533 9.65333 26.9867 9.53333 26.8533C8.37333 25.6933 7.74667 24.9467 6.85333 23.3333C5.93333 21.6933 5.45333 19.6933 5.45333 17.5467C5.45333 13.5867 8.84 10.36 13 10.36C17.16 10.36 20.5467 13.5867 20.5467 17.5467C20.5467 17.92 20.2533 18.2133 19.88 18.2133C19.5067 18.2133 19.2133 17.92 19.2133 17.5467C19.2133 14.32 16.4267 11.6933 13 11.6933C9.57333 11.6933 6.78667 14.32 6.78667 17.5467C6.78667 19.4667 7.21333 21.24 8.02667 22.68C8.88 24.2133 9.46667 24.8667 10.4933 25.9067C10.7467 26.1733 10.7467 26.5867 10.4933 26.8533C10.3467 26.9867 10.1733 27.0533 10 27.0533ZM19.56 24.5867C17.9733 24.5867 16.5733 24.1867 15.4267 23.4C13.44 22.0533 12.2533 19.8667 12.2533 17.5467C12.2533 17.1733 12.5467 16.88 12.92 16.88C13.2933 16.88 13.5867 17.1733 13.5867 17.5467C13.5867 19.4267 14.5467 21.2 16.1733 22.2933C17.12 22.9333 18.2267 23.24 19.56 23.24C19.88 23.24 20.4133 23.2 20.9467 23.1067C21.3067 23.04 21.6533 23.28 21.72 23.6533C21.7867 24.0133 21.5467 24.36 21.1733 24.4267C20.4133 24.5733 19.7467 24.5867 19.56 24.5867ZM16.88 27.3333C16.8267 27.3333 16.76 27.32 16.7067 27.3067C14.5867 26.72 13.2 25.9333 11.7467 24.5067C9.88 22.6533 8.85333 20.1867 8.85333 17.5467C8.85333 15.3867 10.6933 13.6267 12.96 13.6267C15.2267 13.6267 17.0667 15.3867 17.0667 17.5467C17.0667 18.9733 18.3067 20.1333 19.84 20.1333C21.3733 20.1333 22.6133 18.9733 22.6133 17.5467C22.6133 12.52 18.28 8.43999 12.9467 8.43999C9.16 8.43999 5.69333 10.5467 4.13333 13.8133C3.61333 14.8933 3.34667 16.16 3.34667 17.5467C3.34667 18.5867 3.44 20.2267 4.24 22.36C4.37333 22.7067 4.2 23.0933 3.85333 23.2133C3.50667 23.3467 3.12 23.16 3 22.8267C2.34667 21.08 2.02667 19.3467 2.02667 17.5467C2.02667 15.9467 2.33333 14.4933 2.93333 13.2267C4.70667 9.50666 8.64 7.09332 12.9467 7.09332C19.0133 7.09332 23.9467 11.7733 23.9467 17.5333C23.9467 19.6933 22.1067 21.4533 19.84 21.4533C17.5733 21.4533 15.7333 19.6933 15.7333 17.5333C15.7333 16.1067 14.4933 14.9467 12.96 14.9467C11.4267 14.9467 10.1867 16.1067 10.1867 17.5333C10.1867 19.8133 11.0667 21.9467 12.68 23.5467C13.9467 24.8 15.16 25.4933 17.04 26.0133C17.4 26.1067 17.6 26.48 17.5067 26.8267C17.44 27.1333 17.16 27.3333 16.88 27.3333Z" fill="black" fill-opacity="0.87"/>
</svg>
